<svg xmlns="http://www.w3.org/2000/svg" width="379.494" height="213.088" viewBox="0 0 379.494 213.088">
<defs>
    <style>
      .cls-1 {
        fill: #fff;
        stroke: gray;
        stroke-width: 0.15px;
        fill-rule: evenodd;
      }
    </style>
  </defs>
  <path id="MRDGRD" data-name="MRDGRD" class="cls-1" d="M191.152,160.761a45.563,45.563,0,0,0-14.021-16.024q-8.48-5.85-20.8-5.855a37.181,37.181,0,0,0-21.879,6.934q-9.865,6.933-14.175,21.416L66.968,348.424h62.554l19.413-71.8q4.623-17.563,8.012-30.969t5.855-25.73q2.463,5.243,5.085,10.785t6.163,12.172q3.538,6.63,7.857,14.945t9.861,18.8L219.5,328.7a55.171,55.171,0,0,0,8.166,12.171,36.306,36.306,0,0,0,8.474,6.934,26.858,26.858,0,0,0,9.244,3.235,75.825,75.825,0,0,0,21.571,0,26.931,26.931,0,0,0,9.244-3.235,36.408,36.408,0,0,0,8.474-6.934,55.346,55.346,0,0,0,8.166-12.171l27.734-51.77q10.471-20.026,16.948-33.126t11.71-23.881q2.462,12.639,5.854,25.884t8.32,30.815l19.414,71.8H446.3L394.222,167.232q-4.318-14.481-14.02-21.416a36.5,36.5,0,0,0-21.725-6.934q-12.639,0-21.108,6.009a47.814,47.814,0,0,0-14.021,15.87l-32.972,58.548q-6.781,12.018-11.864,20.955t-8.936,16.177q-3.857,7.245-6.779,12.943T257.4,280.631q-2.773-5.547-5.7-11.4t-6.779-12.943q-3.857-7.084-8.936-16.177T224.124,219ZM224.091,204Q191.182,147,257,147t32.909,57Q257,261,224.091,204Z" transform="translate(-66.894 -138.8)"/>
</svg>
